HIERARCHY
ROOT Root
{
  OFFSET 10.339 12.0502 -0.438498
  CHANNELS 6 Xposition Yposition Zposition Zrotation Xrotation Yrotation
  JOINT Spine
  {
    OFFSET 5.3114 0 0
    CHANNELS 3 Zrotation Xrotation Yrotation
    JOINT Spine1
    {
      OFFSET 2.79004 0 0
      CHANNELS 3 Zrotation Xrotation Yrotation
      JOINT Neck
      {
        OFFSET 1.43377 0 0
        CHANNELS 3 Zrotation Xrotation Yrotation
        JOINT Head
        {
          OFFSET 1.86043 0 0
          CHANNELS 3 Zrotation Xrotation Yrotation
          End Site
          {
            OFFSET 0 0 0
          }
        }
      }
      JOINT LeftArm
      {
        OFFSET 0.0387506 0 2.55754
        CHANNELS 3 Zrotation Xrotation Yrotation
        JOINT LeftForeArm
        {
          OFFSET 4.24845 0 0
          CHANNELS 3 Zrotation Xrotation Yrotation
          JOINT LeftHand
          {
            OFFSET 4.01008 0 0
            CHANNELS 3 Zrotation Xrotation Yrotation
            End Site
            {
              OFFSET 0 0 0
            }
          }
        }
      }
      JOINT RightArm
      {
        OFFSET 0.0387506 0 -2.55754
        CHANNELS 3 Zrotation Xrotation Yrotation
        JOINT RightForeArm
        {
          OFFSET -4.24845 0 0
          CHANNELS 3 Zrotation Xrotation Yrotation
          JOINT RightHand
          {
            OFFSET -4.01009 0 0
            CHANNELS 3 Zrotation Xrotation Yrotation
            End Site
            {
              OFFSET 0 0 0
            }
          }
        }
      }
    }
  }
  JOINT LeftUpLeg
  {
    OFFSET -1.23318 0 2.05692
    CHANNELS 3 Zrotation Xrotation Yrotation
    JOINT LeftLeg
    {
      OFFSET 5.46397 0 0
      CHANNELS 3 Zrotation Xrotation Yrotation
      JOINT LeftFoot
      {
        OFFSET 4.68898 0 0
        CHANNELS 3 Zrotation Xrotation Yrotation
        End Site
        {
          OFFSET 0 0 0
        }
      }
    }
  }
  JOINT RightUpLeg
  {
    OFFSET -1.24454 0 -2.05007
    CHANNELS 3 Zrotation Xrotation Yrotation
    JOINT RightLeg
    {
      OFFSET -5.46397 0 0
      CHANNELS 3 Zrotation Xrotation Yrotation
      JOINT RightFoot
      {
        OFFSET -4.68901 0 0
        CHANNELS 3 Zrotation Xrotation Yrotation
        End Site
        {
          OFFSET 0 0 0
        }
      }
    }
  }
}
MOTION
Frames:	14
Frame Time:	0.0416667
14.6133 10.1909 -0.483037 74.7798 0.210586 1.20616 16.4149 1.23811 -0.750872 2.85456 0.181951 0.26417 -24.0068 -0.160621 -5.67641 33.9418 -1.09878 3.33819 29.9052 -51.1089 -151.351 48.6233 7.75389 27.0627 -3.57425 -35.465 173.31 -152.707 -44.5718 -156.452 44.1859 6.06499 24.8713 0.0676767 0.671792 174.435 -36.4245 3.69458 -172.625 -76.1042 -0.832307 -2.40162 25.7551 -8.23259 179.057 144.263 -5.91109 -171.315 -68.2043 -0.776324 -2.43283 5.37921 5.65652 176.003 
14.6132 10.1926 -0.483485 74.5861 0.198194 1.26125 16.6327 1.18681 -0.862251 2.86447 0.176748 0.33857 -23.8353 -0.227261 -5.42882 33.062 -1.19554 3.10634 29.8117 -51.2258 -151.242 48.7344 7.79858 27.1163 -3.58854 -35.5643 173.301 -152.583 -44.5878 -156.278 44.5771 6.20624 25.0685 0.00529375 0.0238972 174.437 -37.2331 3.40476 -172.731 -77.4808 -0.795573 -2.4422 24.5453 -9.38053 179.185 144.478 -5.96517 -171.267 -68.1804 -0.778199 -2.43037 5.45838 5.70565 175.994 
14.6156 10.1935 -0.483903 74.5918 0.0347236 1.01048 16.885 1.21437 -0.679835 2.80968 0.174452 0.565766 -23.9203 -0.192785 -5.61125 32.4826 -1.16462 3.27232 29.5794 -51.3641 -151.44 48.889 7.86097 27.1907 -3.64269 -35.9394 173.27 -152.05 -44.8733 -155.456 44.8024 6.2883 25.1815 -0.0518464 -0.56671 174.437 -38.4078 3.02392 -172.344 -78.9529 -0.746099 -2.48213 23.4155 -10.4103 179.212 144.363 -6.06443 -171.688 -67.969 -0.778636 -2.42548 5.19062 5.62202 176.021 
14.615 10.1972 -0.484485 74.5482 -0.118635 0.977682 17.2979 1.15939 -0.707499 2.75311 0.154251 0.63281 -24.0893 -0.147803 -5.60304 32.0969 -1.04892 3.39219 29.5142 -51.5184 -151.312 48.9487 7.88502 27.2199 -3.67806 -36.1838 173.249 -151.593 -45.209 -154.808 45.0827 6.39116 25.3221 -0.0889938 -0.951785 174.438 -39.2115 2.73767 -172.224 -80.0692 -0.712545 -2.5137 22.6674 -11.4334 179.276 144.323 -6.25573 -171.845 -67.5524 -0.774414 -2.41171 4.72838 5.42151 176.069 
14.6081 10.202 -0.48204 74.6265 -0.1713 0.989378 17.5535 1.07822 -0.764716 2.69712 0.128978 0.630857 -23.8404 -0.178712 -5.42132 31.4811 -1.02407 3.40595 29.9313 -51.904 -150.644 48.9666 7.89253 27.2212 -3.70258 -36.3535 173.234 -151.586 -45.3299 -154.683 45.2577 6.45565 25.4097 -0.0978424 -1.04729 174.439 -39.9235 2.4422 -172.101 -80.7667 -0.681073 -2.53339 22.0523 -12.0703 179.254 144.088 -6.39726 -171.886 -67.0742 -0.764836 -2.39526 4.11942 5.27621 176.118 
14.6006 10.2065 -0.478356 74.6837 -0.199919 1.03146 17.7733 1.00509 -0.817373 2.6745 0.107357 0.654896 -23.3969 -0.27667 -5.1347 30.8524 -1.1799 3.07431 30.3503 -52.3311 -149.977 48.9314 7.87801 27.2115 -3.71304 -36.4267 173.227 -151.854 -45.1544 -154.846 45.2397 6.44907 25.4006 -0.0872226 -0.942891 174.44 -40.2165 2.31711 -172.114 -80.6688 -0.663675 -2.52886 21.214 -12.7233 179.2 143.914 -6.47195 -171.851 -66.6102 -0.756513 -2.3779 3.59829 4.97423 176.166 
14.5889 10.2102 -0.473778 74.79 -0.198147 1.06189 18.0076 0.743563 -0.791278 2.67596 0.0323758 0.903072 -23.3528 -0.0786753 -5.43138 30.8497 -0.84095 3.29161 30.3536 -52.6635 -149.909 48.9633 7.89106 27.2265 -3.72508 -36.5097 173.22 -151.994 -44.976 -154.661 45.1971 6.4333 25.3794 -0.0899037 -0.974265 174.442 -40.3518 2.16315 -172.122 -80.2344 -0.679401 -2.51409 21.4451 -12.9165 179.288 143.761 -6.56371 -171.864 -66.2051 -0.754074 -2.36135 3.55954 4.43997 176.179 
14.5746 10.2142 -0.469448 74.947 -0.0569966 1.08544 18.1935 0.576488 -0.684786 2.61662 -0.0211156 0.971906 -22.9856 -0.0515615 -5.47512 30.4059 -0.804784 3.24199 30.4095 -52.8546 -149.807 48.9161 7.87184 27.2037 -3.71282 -36.4263 173.227 -152.191 -44.5913 -154.848 45.3269 6.48134 25.4442 -0.0836822 -0.91258 174.443 -40.4089 1.84159 -172.275 -79.6831 -0.706626 -2.49702 22.0542 -12.7594 179.409 143.673 -6.6233 -171.826 -66.0998 -0.762844 -2.35427 4.45745 3.70402 176.144 
14.5597 10.2145 -0.466197 75.4229 0.0138529 0.999907 18.1708 0.722043 -0.488325 2.93825 0.00127853 0.760832 -23.021 -0.130316 -5.31993 29.9712 -0.894033 3.29359 30.1674 -52.9685 -149.459 48.8282 7.83634 27.1614 -3.6983 -36.3251 173.236 -152.964 -44.2555 -155.463 45.4263 6.51807 25.4938 -0.0880059 -0.956926 174.445 -40.9034 1.51146 -172.375 -79.1936 -0.742333 -2.48006 22.8217 -12.6312 179.574 143.182 -6.71586 -172.035 -66.3827 -0.780911 -2.35879 5.93443 2.46406 176.153 
14.5424 10.2182 -0.462841 75.8937 -0.114848 1.0817 18.2607 0.67827 -0.496141 3.10067 -0.0157816 0.781406 -23.5134 0.0683319 -5.63237 30.4723 -0.516156 3.75287 29.4227 -52.7892 -149.998 48.716 7.79117 27.1074 -3.67663 -36.1719 173.249 -153.039 -44.341 -155.176 45.4275 6.51862 25.4944 -0.112715 -1.20753 174.446 -41.2589 1.39221 -172.527 -78.4758 -0.773276 -2.45861 23.2563 -12.4027 179.654 142.561 -6.86545 -172.183 -66.9311 -0.795589 -2.37357 7.27731 1.78879 176.166 
14.5187 10.2247 -0.455922 76.4346 -0.104656 1.11354 18.3348 0.656357 -0.480934 3.08377 -0.024386 0.76483 -23.6149 0.0961043 -5.70871 30.4991 -0.461872 3.90793 29.0037 -52.5202 -150.435 48.5711 7.73299 27.0376 -3.6204 -35.7772 173.282 -152.984 -44.3139 -155.14 45.3801 6.50104 25.4708 -0.0838104 -0.90305 174.448 -41.8181 1.16592 -172.68 -78.0604 -0.795933 -2.44566 23.4171 -12.3378 179.717 141.759 -6.55772 -172.344 -67.5919 -0.822228 -2.39169 9.10768 1.2107 176.199 
14.4919 10.2228 -0.447755 77.0403 -0.0611434 1.21925 18.5139 0.594199 -0.541137 3.13211 -0.0418061 0.842856 -23.778 0.16375 -6.01614 30.3847 -0.348166 4.33481 28.1904 -52.1461 -151.141 48.4757 7.69478 26.9916 -3.55489 -35.31 173.321 -153.157 -44.2649 -155.032 45.4696 6.53422 25.5154 -0.0378287 -0.417847 174.45 -42.4613 0.928049 -172.865 -77.8329 -0.811919 -2.44245 23.927 -11.552 179.668 140.734 -6.24133 -172.464 -68.3569 -0.836594 -2.41486 10.2834 0.935434 176.228 
14.4582 10.2223 -0.441154 77.6427 -0.0594902 1.45108 18.7581 0.536702 -0.698911 3.13885 -0.0570398 0.813204 -23.4479 0.133232 -5.88009 29.6238 -0.393415 4.17095 27.6176 -51.8468 -151.55 48.2899 7.62059 26.9016 -3.47732 -34.7413 173.366 -152.9 -44.5245 -154.667 45.7416 6.63573 25.6509 -0.00930415 -0.106296 174.451 -43.0176 0.93154 -173.152 -77.5913 -0.826917 -2.44135 24.4313 -10.3388 179.494 139.616 -6.08432 -172.524 -69.0051 -0.829523 -2.43651 10.0926 1.2583 176.209 
14.4179 10.22 -0.435472 78.5572 -0.056865 1.51052 18.8289 0.69976 -0.658274 3.10204 -0.017509 0.683102 -23.2255 0.0437748 -5.86943 29.0788 -0.533776 4.30743 27.2134 -51.7309 -151.647 47.9938 7.50294 26.7579 -3.43877 -34.4337 173.389 -152.715 -44.7741 -154.448 45.9532 6.71511 25.756 0.0312893 0.357425 174.453 -43.9764 0.915372 -173.259 -77.4143 -0.830146 -2.44119 25.0361 -8.96308 179.253 138.117 -5.84792 -172.813 -69.4346 -0.822272 -2.45506 9.27874 1.86538 176.18 
